<svg xmlns="http://www.w3.org/2000/svg" viewBox="0 0 256 256">
    <defs>
      <linearGradient id="bg" x1="0" y1="0" x2="1" y2="1">
        <stop offset="0%" stop-color="#2377FF"/>
        <stop offset="100%" stop-color="#2D4CFF"/>
      </linearGradient>
    </defs>
    <rect width="256" height="256" rx="128" fill="url(#bg)"/>
    <circle cx="128" cy="138" r="56" fill="#ffe7d1"/>
    <path d="M176 74c18 7 31 24 36 46-10-8-23-11-34-11z" fill="#4a3a3a"/><path d="M80 80c10-24 32-40 56-40 28 0 49 15 56 40v56c0 30-22 52-56 52h-8c-34 0-56-22-56-52z" fill="#4a3a3a"/>
    <ellipse cx="106" cy="136" rx="6" ry="8" fill="#53353b"/>
    <ellipse cx="150" cy="136" rx="6" ry="8" fill="#53353b"/>
    <path d="M115 160c6 6 20 6 26 0" stroke="#53353b" stroke-width="4" fill="none" stroke-linecap="round"/>
    <path d="M94 122c7-6 14-8 24-7" stroke="#53353b" stroke-width="4" fill="none" stroke-linecap="round"/>
    <path d="M138 115c10-1 17 1 24 7" stroke="#53353b" stroke-width="4" fill="none" stroke-linecap="round"/>
    <path d="M94 210c10-12 22-18 34-18 16 0 28 6 36 18" fill="none" stroke="#ffe7d1" stroke-width="28" stroke-linecap="round"/>
    <path d="M84 222c10-12 26-20 44-20 20 0 37 8 46 20" fill="none" stroke="rgba(255,255,255,.35)" stroke-width="22" stroke-linecap="round"/>
    <path d="M200 52l4 10 10 1-8 6 3 10-9-5-8 5 2-10-7-6 10-1z" fill="#2D4CFF"/>
    </svg>