<svg xmlns="http://www.w3.org/2000/svg" viewBox="0 0 256 256">
    <defs>
      <linearGradient id="bg" x1="0" y1="0" x2="1" y2="1">
        <stop offset="0%" stop-color="#ffd700"/>
        <stop offset="100%" stop-color="#FFE41C"/>
      </linearGradient>
    </defs>
    <rect width="256" height="256" rx="128" fill="url(#bg)"/>
    <circle cx="128" cy="138" r="56" fill="#ffe7d1"/>
    <path d="M68 78c8-26 31-42 60-42s52 16 60 42v78c0 30-24 54-54 54h-12c-30 0-54-24-54-54z" fill="#4a3a3a"/><path d="M84 70c15-16 31-22 45-22 27 0 43 11 56 26" stroke="#2f2424" stroke-width="8" fill="none" stroke-linecap="round"/>
    <ellipse cx="106" cy="136" rx="6" ry="8" fill="#53353b"/>
    <ellipse cx="150" cy="136" rx="6" ry="8" fill="#53353b"/>
    <path d="M115 160c6 6 20 6 26 0" stroke="#53353b" stroke-width="4" fill="none" stroke-linecap="round"/>
    <path d="M94 122c7-6 14-8 24-7" stroke="#53353b" stroke-width="4" fill="none" stroke-linecap="round"/>
    <path d="M138 115c10-1 17 1 24 7" stroke="#53353b" stroke-width="4" fill="none" stroke-linecap="round"/>
    <path d="M94 210c10-12 22-18 34-18 16 0 28 6 36 18" fill="none" stroke="#ffe7d1" stroke-width="28" stroke-linecap="round"/>
    <path d="M84 222c10-12 26-20 44-20 20 0 37 8 46 20" fill="none" stroke="rgba(255,255,255,.35)" stroke-width="22" stroke-linecap="round"/>
    <path d="M186 54h40l-8 14 8 14h-40l8-14z" fill="#FFE41C"/>
    </svg>